<?xml version="1.0" encoding="UTF-8"?><svg id="Layer_1" xmlns="http://www.w3.org/2000/svg" viewBox="0 0 343.06 177.24"><defs><style>.cls-1,.cls-2{fill:#fff;}.cls-2,.cls-3{fill-rule:evenodd;}.cls-3{fill:#f8cbad;}</style></defs><rect class="cls-1" x="193.78" y="3" width="31.2" height="171.48"/><polygon class="cls-2" points="311.86 2.88 311.86 128.26 256.06 41.88 256.06 87.98 311.86 174.36 343.06 174.36 343.06 2.88 311.86 2.88"/><path class="cls-3" d="M34.31,88.62c0,30.05,21.78,54.41,48.65,54.41s48.65-24.36,48.65-54.41-21.78-54.41-48.65-54.41-48.65,24.36-48.65,54.41ZM.1,88.62C.1,39.68,37.2,0,82.96,0s82.86,39.68,82.86,88.62-37.1,88.62-82.86,88.62S.1,137.56,.1,88.62Z"/><ellipse class="cls-1" cx="179.62" cy="88.68" rx="14.16" ry="15.6"/><path class="cls-3" d="M179.73,104.28c-7.82,.06-14.21-6.87-14.27-15.48-.06-8.62,6.23-15.65,14.05-15.72h.11v15.6l.11,15.6Z"/></svg>