<?xml version="1.0" encoding="UTF-8"?><svg id="Layer_1" xmlns="http://www.w3.org/2000/svg" viewBox="0 0 177.24 342.96"><defs><style>.cls-1,.cls-2{fill:#fff;}.cls-2,.cls-3{fill-rule:evenodd;}.cls-3{fill:#f8cbad;}</style></defs><rect class="cls-1" x="2.76" y="193.68" width="171.48" height="31.2"/><polygon class="cls-2" points="174.36 311.76 48.98 311.76 135.36 255.96 89.26 255.96 2.88 311.76 2.88 342.96 174.36 342.96 174.36 311.76"/><path class="cls-3" d="M88.62,34.21c-30.05,0-54.41,21.78-54.41,48.65s24.36,48.65,54.41,48.65,54.41-21.78,54.41-48.65-24.36-48.65-54.41-48.65Zm0-34.21c48.94,0,88.62,37.1,88.62,82.86s-39.68,82.86-88.62,82.86S0,128.62,0,82.86,39.68,0,88.62,0Z"/><ellipse class="cls-1" cx="88.56" cy="179.52" rx="15.6" ry="14.16"/><path class="cls-3" d="M72.96,179.63c-.06-7.82,6.87-14.21,15.48-14.27,8.62-.06,15.65,6.23,15.72,14.05v.11h-15.6l-15.6,.11Z"/></svg>